<?xml version="1.0" encoding="UTF-8" standalone="no"?>
<svg
   xmlns="http://www.w3.org/2000/svg"
   viewBox="0 0 24 24"
   height="24"
   width="24"
   version="1.1">
  <path
     fill="#0000ff"
     d="M12,1L3,5V11C3,16.55 6.84,21.74 12,23C17.16,21.74 21,16.55 21,11V5L12,1M12,7C13.4,7 14.8,8.1 14.8,9.5V11C15.4,11 16,11.6 16,12.3V15.8C16,16.4 15.4,17 14.7,17H9.2C8.6,17 8,16.4 8,15.7V12.2C8,11.6 8.6,11 9.2,11V9.5C9.2,8.1 10.6,7 12,7M12,8.2C11.2,8.2 10.5,8.7 10.5,9.5V11H13.5V9.5C13.5,8.7 12.8,8.2 12,8.2Z" />
  <path
     fill="#ffffff"
     d="M 21,11 C 21,16.55 17.16,21.739999 12,23 6.84,21.739999 3,16.55 3,11 V 5 l 9,-4 9,4 v 6 m -9,10 c 3.75,-1 7,-5.46 7,-9.78 V 6.3 L 12,3.18 5,6.3 v 4.92 c 0,4.32 3.25,8.779999 7,9.78 z"/>
</svg>
