<?xml version="1.0" encoding="UTF-8" standalone="no"?>
<svg
   xmlns="http://www.w3.org/2000/svg"
   viewBox="0 0 24 24"
   height="24"
   width="24"
   version="1.1">
  <path fill="#FFFFFF" d="M 5 3 C 3.8954305 3 3 3.8954305 3 5 L 3 19 C 3 20.104569 3.8954305 21 5 21 L 11.810547 21 C 11.420547 20.34 11.170312 19.599844 11.070312 18.839844 C 9.5003125 18.309844 8.6592187 16.599297 9.1992188 15.029297 C 9.6092188 13.829297 10.73 13 12 13 C 12.44 13 12.879297 13.099063 13.279297 13.289062 C 15.569297 11.499063 18.83 11.589063 21 13.539062 L 21 7 L 17 3 L 5 3 z M 5 5 L 15 5 L 15 9 L 5 9 L 5 5 z M 18 14 L 13 18.5 L 18 23 L 18 20 L 22 20 L 22 17 L 18 17 L 18 14 z "/>
</svg>
